# xmcd CD database file
#
# Track frame offsets:
#	150
#	10736
#	23125
#	33641
#	44526
#	58182
#	72593
#	87839
#	102965
#	114017
#	125633
#	135897
#
# Disc length: 1922 seconds
#
# Revision: 0
# Processed by: cddbd v1.5.2PL0 Copyright (c) Steve Scherf et al.
# Submitted via: CDex 1.78
#
DISCID=9c07800c
DTITLE=Fats Domino - Rock and Roll Never Forgets
DYEAR=2005
DGENRE=Merengue
TTITLE0=Walking To New Orleans
TTITLE1=I'm Walkin'
TTITLE2=Ain't That A Shame
TTITLE3=The Fat Man
TTITLE4=Blueberry Hill
TTITLE5=I'm In Love Again
TTITLE6=Your Cheatin' Heart
TTITLE7=Jabalaya On The Bayou
TTITLE8=Going To The River
TTITLE9=I Want To Walk You Home
TTITLE10=Going To Mardi Gras
TTITLE11=When The Saints Go Marchin' In
EXTD=YEAR: 2005
EXTT0=
EXTT1=
EXTT2=
EXTT3=
EXTT4=
EXTT5=
EXTT6=
EXTT7=
EXTT8=
EXTT9=
EXTT10=
EXTT11=
PLAYORDER=
